<svg id="svg" version="1.1" xmlns="http://www.w3.org/2000/svg" xmlns:xlink="http://www.w3.org/1999/xlink" width="400" height="400" viewBox="0, 0, 400,400"><g id="svgg"><path id="path0" d="M195.313 115.899 C 191.255 117.366,189.382 118.973,175.586 132.831 C 157.749 150.746,157.998 150.585,129.172 162.941 C 109.600 171.329,103.583 175.062,99.026 181.637 C 98.434 182.491,97.813 183.105,97.645 183.001 C 97.262 182.764,95.182 188.470,94.509 191.602 C 93.935 194.272,93.816 204.629,94.349 205.487 C 94.544 205.799,94.667 206.494,94.623 207.031 C 94.550 207.929,94.575 207.945,94.932 207.227 C 95.231 206.626,95.269 206.793,95.096 207.949 C 94.933 209.041,94.997 209.375,95.329 209.169 C 95.649 208.972,95.708 209.134,95.526 209.709 C 95.382 210.161,95.460 210.842,95.698 211.223 C 96.068 211.814,96.099 211.772,95.913 210.938 C 95.729 210.111,95.780 210.142,96.245 211.133 C 97.564 213.943,98.117 215.586,97.875 215.977 C 97.710 216.244,97.857 216.305,98.280 216.143 C 98.826 215.933,98.909 216.070,98.747 216.916 C 98.639 217.482,98.693 217.857,98.868 217.749 C 99.043 217.641,99.457 218.077,99.788 218.718 C 100.508 220.109,100.546 220.455,99.940 220.080 C 99.658 219.906,99.595 219.973,99.771 220.259 C 99.927 220.510,100.209 220.620,100.398 220.503 C 100.758 220.281,101.749 221.745,101.761 222.519 C 101.765 222.766,102.126 223.293,102.563 223.691 C 103.000 224.089,103.085 224.238,102.753 224.023 C 102.227 223.684,102.218 223.721,102.681 224.312 C 102.974 224.686,103.399 224.877,103.626 224.736 C 103.878 224.580,103.947 224.720,103.804 225.095 C 103.663 225.462,103.910 225.996,104.421 226.428 C 105.268 227.144,105.269 227.144,104.589 226.335 C 104.213 225.888,103.995 225.432,104.105 225.322 C 104.215 225.212,104.040 224.369,103.715 223.449 C 101.264 216.502,105.028 205.858,112.225 199.383 C 117.145 194.957,120.755 193.098,139.844 185.155 C 168.105 173.396,166.945 174.215,191.167 148.917 C 209.887 129.364,210.278 128.845,209.556 124.497 C 208.571 118.565,200.841 113.899,195.313 115.899 M293.450 130.078 C 293.450 130.830,293.530 131.138,293.629 130.762 C 293.727 130.386,293.727 129.771,293.629 129.395 C 293.530 129.019,293.450 129.326,293.450 130.078 M304.307 207.324 C 304.011 208.130,303.803 209.277,303.845 209.874 C 303.915 210.889,301.855 216.544,301.116 217.363 C 300.667 217.861,300.688 218.463,301.145 218.181 C 301.785 217.785,304.625 210.031,304.907 207.909 C 305.228 205.489,305.046 205.311,304.307 207.324 " stroke="none" fill="#6ee491" fill-rule="evenodd"></path><path id="path1" d="M120.898 112.731 C 122.735 113.023,127.267 113.084,126.837 112.811 C 126.579 112.646,124.961 112.533,123.242 112.559 C 121.523 112.585,120.469 112.662,120.898 112.731 M274.023 112.688 C 273.809 112.757,272.666 113.111,271.484 113.475 C 269.557 114.068,264.578 117.094,262.791 118.759 C 262.413 119.111,260.655 120.145,258.884 121.058 C 257.113 121.970,256.104 122.593,256.641 122.441 C 258.436 121.934,260.712 120.631,264.453 117.969 C 274.975 110.481,284.186 111.233,290.743 120.117 C 291.377 120.976,291.815 121.416,291.717 121.095 C 290.197 116.142,279.328 110.977,274.023 112.688 M117.109 113.477 C 115.649 114.014,112.434 116.016,113.033 116.016 C 113.210 116.016,113.823 115.695,114.393 115.303 C 114.963 114.910,116.045 114.355,116.797 114.068 C 117.549 113.781,118.331 113.399,118.535 113.219 C 119.004 112.804,118.878 112.827,117.109 113.477 M127.895 113.181 C 128.221 113.507,131.641 114.825,131.641 114.624 C 131.641 114.382,130.033 113.605,128.799 113.250 C 128.155 113.066,127.748 113.035,127.895 113.181 M132.031 114.967 C 132.031 115.165,138.699 120.110,139.453 120.471 C 140.071 120.766,139.711 120.463,135.908 117.480 C 133.619 115.686,132.031 114.656,132.031 114.967 M111.064 117.285 C 110.368 118.059,108.465 120.788,107.661 122.168 C 107.504 122.437,107.529 122.656,107.717 122.656 C 107.905 122.656,108.353 122.039,108.712 121.285 C 109.072 120.531,110.094 119.125,110.983 118.160 C 111.872 117.196,112.432 116.406,112.227 116.406 C 112.022 116.406,111.499 116.802,111.064 117.285 M140.401 121.047 C 140.517 121.236,141.011 121.490,141.498 121.613 C 142.352 121.828,142.356 121.816,141.625 121.270 C 140.785 120.642,140.070 120.512,140.401 121.047 M293.458 127.539 C 293.462 128.398,293.542 128.704,293.636 128.218 C 293.729 127.732,293.726 127.029,293.628 126.656 C 293.530 126.282,293.454 126.680,293.458 127.539 M106.384 129.883 C 106.385 131.602,106.454 132.256,106.537 131.337 C 106.619 130.419,106.618 129.012,106.534 128.212 C 106.450 127.412,106.382 128.164,106.384 129.883 M293.420 132.422 C 293.381 133.174,293.258 134.229,293.148 134.766 L 292.947 135.742 293.367 134.779 C 293.598 134.249,293.720 133.195,293.639 132.435 L 293.491 131.055 293.420 132.422 M107.214 136.018 C 107.515 137.505,108.192 139.204,108.400 138.996 C 108.496 138.900,108.220 137.952,107.787 136.891 C 107.354 135.829,107.096 135.437,107.214 136.018 M291.306 139.238 C 290.721 140.431,290.321 141.406,290.417 141.406 C 290.767 141.406,292.643 137.889,292.508 137.485 C 292.432 137.257,291.891 138.046,291.306 139.238 M288.357 143.751 C 286.203 146.252,282.569 148.716,279.401 149.823 C 276.545 150.821,275.753 151.326,277.981 150.730 C 282.213 149.597,287.764 145.839,289.591 142.871 C 290.533 141.341,290.271 141.528,288.357 143.751 M112.305 144.531 C 113.363 145.605,114.316 146.484,114.424 146.484 C 114.531 146.484,113.753 145.605,112.695 144.531 C 111.637 143.457,110.684 142.578,110.576 142.578 C 110.469 142.578,111.247 143.457,112.305 144.531 M117.969 148.807 C 118.874 149.515,120.654 150.190,120.904 149.921 C 120.964 149.857,120.108 149.409,119.003 148.925 C 117.216 148.143,117.101 148.129,117.969 148.807 M271.978 151.452 C 272.572 151.542,273.451 151.540,273.931 151.447 C 274.412 151.354,273.926 151.281,272.852 151.284 C 271.777 151.287,271.384 151.362,271.978 151.452 M130.078 151.712 C 130.078 151.795,130.518 151.946,131.055 152.049 C 131.592 152.151,132.031 152.084,132.031 151.899 C 132.031 151.714,131.592 151.563,131.055 151.563 C 130.518 151.563,130.078 151.630,130.078 151.712 M105.447 170.996 C 101.973 174.759,101.424 175.391,101.633 175.391 C 101.757 175.391,103.037 174.072,104.479 172.461 C 105.922 170.850,107.033 169.531,106.950 169.531 C 106.867 169.531,106.191 170.190,105.447 170.996 M294.922 171.228 C 294.922 171.316,295.164 171.982,295.460 172.706 C 299.977 183.769,290.175 196.249,270.981 203.873 C 266.398 205.694,240.606 216.800,238.477 217.870 C 231.540 221.355,228.628 223.996,212.353 241.563 C 189.722 265.992,190.138 265.448,190.083 270.703 C 190.019 276.811,194.114 280.608,200.800 280.640 C 206.467 280.667,207.526 279.842,223.059 263.287 C 238.251 247.095,243.824 242.712,255.078 238.102 C 256.475 237.530,258.545 236.633,259.679 236.109 C 260.812 235.585,261.818 235.156,261.914 235.156 C 262.010 235.156,265.203 233.823,269.010 232.193 C 272.818 230.564,277.700 228.527,279.861 227.667 C 292.679 222.566,300.765 215.957,304.152 207.813 C 304.643 206.631,305.053 206.001,305.062 206.413 C 305.112 208.680,305.726 205.857,306.202 201.172 C 306.923 194.088,305.806 187.965,302.537 181.077 C 300.549 176.887,294.922 169.609,294.922 171.228 M100.646 176.496 C 100.291 176.888,100.000 177.355,100.000 177.533 C 100.000 177.711,99.592 178.400,99.092 179.065 C 98.288 180.135,97.285 182.142,97.823 181.604 C 98.005 181.422,100.516 177.584,101.313 176.270 C 101.747 175.553,101.390 175.674,100.646 176.496 M94.967 188.320 C 94.727 189.007,94.543 189.851,94.557 190.195 C 94.572 190.539,94.828 190.036,95.126 189.078 C 95.751 187.072,95.620 186.447,94.967 188.320 M93.578 196.582 C 93.443 198.569,93.474 201.338,93.646 202.734 C 93.902 204.804,93.964 204.136,93.982 199.121 C 94.008 192.050,93.922 191.509,93.578 196.582 M94.562 208.438 C 94.511 209.786,96.604 215.509,98.190 218.359 C 98.608 219.111,99.146 220.078,99.384 220.508 C 100.865 223.175,105.675 229.297,106.289 229.297 C 106.813 229.297,106.144 228.112,105.072 227.144 C 102.302 224.643,97.282 216.106,95.771 211.328 C 95.329 209.932,94.883 208.525,94.780 208.203 C 94.659 207.824,94.582 207.907,94.562 208.438 M299.141 220.984 C 296.426 224.650,290.206 231.446,288.120 233.024 C 286.207 234.471,275.821 241.576,271.761 244.214 C 270.088 245.302,268.809 246.283,268.920 246.394 C 269.031 246.505,269.390 246.373,269.717 246.102 C 270.045 245.830,270.313 245.744,270.313 245.911 C 270.313 246.078,270.620 245.954,270.996 245.635 C 271.372 245.317,272.363 244.666,273.198 244.189 C 274.034 243.712,275.990 242.364,277.547 241.192 C 279.103 240.021,280.573 239.063,280.813 239.063 C 281.054 239.063,281.578 238.734,281.979 238.334 C 282.380 237.933,283.503 237.301,284.474 236.930 C 285.445 236.559,287.135 235.437,288.230 234.437 C 291.034 231.874,291.327 231.641,291.739 231.641 C 291.940 231.641,292.209 231.366,292.338 231.030 C 292.467 230.694,292.750 230.529,292.966 230.662 C 293.183 230.796,293.359 230.534,293.359 230.078 C 293.359 229.623,293.529 229.355,293.735 229.483 C 293.942 229.611,294.581 229.006,295.154 228.139 C 295.728 227.272,296.360 226.563,296.558 226.563 C 296.757 226.563,297.255 225.802,297.667 224.872 C 298.078 223.942,298.730 222.756,299.116 222.235 C 299.887 221.194,301.685 217.966,301.490 217.973 C 301.422 217.975,300.365 219.330,299.141 220.984 M276.204 247.015 C 276.294 247.093,276.895 247.274,277.539 247.418 C 278.395 247.609,278.553 247.573,278.125 247.283 C 277.598 246.927,275.812 246.677,276.204 247.015 M283.594 250.122 C 283.594 250.189,284.165 250.656,284.863 251.160 L 286.133 252.077 285.186 251.038 C 284.377 250.151,283.594 249.701,283.594 250.122 M292.035 275.973 C 289.687 281.378,284.117 285.524,279.176 285.543 C 278.573 285.545,278.173 285.699,278.288 285.886 C 278.890 286.860,288.656 283.317,288.667 282.121 C 288.670 281.847,289.106 281.426,289.636 281.185 C 290.167 280.943,290.514 280.606,290.409 280.436 C 290.304 280.265,290.443 279.984,290.718 279.809 C 291.173 279.521,291.488 278.950,292.966 275.735 C 293.225 275.172,293.375 274.410,293.300 274.042 C 293.221 273.650,292.694 274.453,292.035 275.973 M240.039 277.187 L 238.867 277.739 240.038 277.510 C 241.261 277.270,241.648 277.063,241.374 276.794 C 241.284 276.706,240.684 276.883,240.039 277.187 M236.698 278.855 C 235.742 279.472,234.346 280.638,233.594 281.447 C 232.280 282.860,232.336 282.839,235.004 280.921 C 238.903 278.116,240.097 276.661,236.698 278.855 M266.002 282.210 C 266.482 282.789,271.094 285.305,271.094 284.989 C 271.094 284.903,269.836 284.108,268.299 283.222 C 266.762 282.336,265.728 281.881,266.002 282.210 M226.915 288.574 C 225.114 290.669,222.671 293.438,221.488 294.727 C 218.743 297.716,220.444 296.330,223.645 292.969 C 226.952 289.496,230.818 284.766,230.350 284.766 C 230.262 284.766,228.717 286.479,226.915 288.574 " stroke="none" fill="#1de1e1" fill-rule="evenodd"></path><path id="path2" d="M193.933 94.874 C 186.213 96.773,182.206 99.756,172.035 111.173 C 163.351 120.921,160.328 122.784,151.764 123.660 C 149.605 123.881,149.226 124.009,149.945 124.275 C 150.445 124.460,151.057 124.489,151.306 124.340 C 151.631 124.145,151.627 124.231,151.293 124.644 C 150.870 125.167,150.513 129.339,150.811 130.273 C 150.987 130.823,150.402 132.422,150.025 132.422 C 149.762 132.422,149.298 134.401,149.133 136.230 C 149.108 136.499,148.932 136.719,148.740 136.719 C 148.548 136.719,148.490 136.879,148.611 137.074 C 149.421 138.385,132.938 151.992,122.302 158.793 C 115.926 162.870,110.455 166.778,109.926 167.634 C 109.751 167.918,110.103 167.760,110.709 167.283 C 111.315 166.807,111.993 166.530,112.216 166.667 C 112.450 166.812,112.503 166.728,112.342 166.467 C 112.177 166.199,112.311 166.016,112.672 166.016 C 113.007 166.016,113.281 166.211,113.281 166.450 C 113.281 167.200,110.103 170.717,109.669 170.448 C 109.424 170.297,109.369 170.378,109.535 170.646 C 109.692 170.900,109.546 171.202,109.204 171.334 C 108.869 171.463,108.594 171.701,108.594 171.864 C 108.594 172.026,110.835 171.059,113.574 169.715 C 116.313 168.370,123.301 165.242,129.102 162.763 C 158.022 150.403,157.339 150.847,175.745 132.434 C 188.636 119.538,190.922 117.499,193.879 116.264 C 201.160 113.221,209.766 118.393,209.766 125.811 C 209.766 129.691,209.419 130.112,187.109 153.344 C 166.658 174.640,167.888 173.845,133.594 187.970 C 111.936 196.891,104.200 204.330,103.608 216.801 C 103.122 227.061,107.562 232.298,124.805 241.807 C 130.583 244.993,132.288 246.479,130.176 246.490 C 111.303 246.580,99.364 268.487,111.548 280.671 C 118.179 287.303,126.040 287.236,135.547 280.468 C 148.125 271.513,157.559 272.560,168.721 284.149 C 181.996 297.934,184.138 299.654,190.940 301.994 C 203.910 306.457,215.223 301.899,227.888 287.109 C 240.113 272.833,252.705 270.611,265.072 280.548 C 268.442 283.256,271.281 284.700,274.269 285.226 C 276.887 285.687,281.339 285.320,280.434 284.718 C 280.056 284.466,280.214 284.428,280.939 284.596 C 281.581 284.745,282.484 284.597,283.245 284.217 C 283.932 283.874,284.688 283.590,284.923 283.585 C 285.619 283.571,287.318 282.110,287.004 281.796 C 286.846 281.637,286.249 281.933,285.678 282.453 C 285.107 282.973,284.766 283.179,284.921 282.910 C 285.106 282.589,284.937 282.422,284.426 282.422 C 283.999 282.422,283.386 282.158,283.064 281.836 C 282.741 281.514,281.850 281.250,281.083 281.250 C 280.103 281.250,279.688 281.076,279.688 280.664 C 279.688 280.339,280.035 280.078,280.469 280.078 C 280.898 280.078,281.250 279.877,281.250 279.632 C 281.250 279.320,280.546 279.259,278.906 279.431 C 276.769 279.654,276.563 279.609,276.563 278.924 C 276.563 278.126,273.713 277.395,272.466 277.874 C 272.062 278.029,271.875 277.857,271.875 277.331 C 271.875 276.766,271.609 276.563,270.871 276.563 C 269.779 276.563,268.750 275.762,268.750 274.913 C 268.750 274.620,268.179 274.212,267.480 274.007 C 265.539 273.435,265.447 271.875,267.356 271.875 C 268.850 271.875,269.411 270.650,268.139 270.162 C 267.765 270.018,267.648 269.737,267.835 269.436 C 268.004 269.166,268.178 268.709,268.221 268.421 C 268.344 267.614,268.750 267.366,268.750 268.099 C 268.750 269.211,269.529 268.813,269.578 267.676 C 269.603 267.085,269.616 266.509,269.607 266.397 C 269.598 266.284,270.447 265.581,271.495 264.834 C 272.785 263.916,273.407 263.192,273.419 262.598 C 273.429 262.114,273.624 261.719,273.851 261.719 C 274.079 261.719,274.157 261.893,274.026 262.105 C 273.890 262.326,274.046 262.392,274.392 262.259 C 274.724 262.132,274.898 261.870,274.779 261.678 C 274.661 261.485,274.829 261.328,275.153 261.328 C 275.477 261.328,276.406 260.534,277.218 259.563 C 278.078 258.534,278.915 257.882,279.225 258.001 C 279.963 258.284,282.794 256.205,282.804 255.371 C 282.809 254.983,283.109 254.688,283.498 254.688 C 284.734 254.688,285.314 251.918,284.257 251.066 C 281.508 248.851,276.070 246.996,270.993 246.541 L 268.172 246.289 272.660 243.249 C 287.040 233.510,289.103 231.676,294.430 223.908 C 294.915 223.201,295.313 222.454,295.313 222.248 C 295.313 222.043,295.660 221.527,296.085 221.103 C 296.509 220.678,297.118 219.706,297.437 218.943 L 298.016 217.556 295.712 219.329 C 294.445 220.304,292.035 221.945,290.356 222.974 C 287.272 224.867,285.849 225.524,274.219 230.422 C 265.043 234.287,261.247 235.900,260.352 236.317 C 259.922 236.517,258.017 237.309,256.119 238.079 C 248.050 241.348,242.818 244.573,236.719 250.035 C 231.754 254.481,231.800 254.435,220.160 266.754 C 207.602 280.046,206.374 280.928,200.436 280.928 C 191.699 280.928,187.178 273.120,191.132 264.858 C 191.650 263.776,191.884 262.891,191.653 262.891 C 191.422 262.891,191.626 262.615,192.107 262.278 C 192.588 261.941,192.882 261.504,192.760 261.306 C 192.638 261.108,192.789 261.043,193.096 261.161 C 193.457 261.299,193.738 261.038,193.893 260.422 C 194.024 259.897,194.508 259.370,194.968 259.250 C 195.555 259.096,195.730 258.836,195.554 258.378 C 195.373 257.906,195.465 257.788,195.889 257.950 C 196.211 258.074,196.433 258.025,196.382 257.841 C 196.331 257.657,196.702 257.144,197.208 256.701 C 197.713 256.257,198.785 255.011,199.591 253.931 C 200.397 252.851,201.198 252.096,201.372 252.253 C 201.546 252.410,201.545 252.293,201.370 251.992 C 201.109 251.542,200.959 251.573,200.526 252.164 C 200.095 252.754,200.000 252.774,200.000 252.272 C 200.000 251.645,197.895 250.978,197.226 251.392 C 197.033 251.511,196.875 251.257,196.875 250.828 C 196.875 250.208,197.176 250.022,198.337 249.926 C 200.281 249.765,200.720 248.438,198.829 248.438 C 197.607 248.438,196.484 247.702,196.484 246.903 C 196.484 246.673,196.309 246.484,196.094 246.484 C 195.879 246.484,195.703 246.748,195.703 247.070 C 195.703 247.393,195.527 247.656,195.313 247.656 C 195.098 247.656,194.899 247.964,194.870 248.340 C 194.842 248.716,194.690 248.408,194.531 247.656 C 194.272 246.427,194.238 246.397,194.192 247.363 C 194.164 247.954,193.949 248.438,193.716 248.438 C 193.436 248.438,193.381 247.902,193.555 246.875 C 193.793 245.467,193.738 245.313,193.003 245.313 C 192.448 245.313,192.188 245.562,192.188 246.094 C 192.188 246.603,191.927 246.875,191.439 246.875 C 191.027 246.875,190.622 247.079,190.539 247.327 C 190.443 247.615,189.999 247.682,189.319 247.511 C 188.731 247.364,188.360 247.064,188.495 246.845 C 188.655 246.587,188.902 246.580,189.196 246.824 C 190.066 247.546,191.251 246.273,190.452 245.475 C 190.070 245.093,189.649 244.961,189.449 245.162 C 189.259 245.352,188.040 245.448,186.740 245.375 L 184.375 245.243 184.375 243.715 L 184.375 242.188 182.605 242.188 C 181.392 242.188,180.764 242.372,180.610 242.773 C 180.486 243.096,180.146 243.359,179.853 243.359 C 179.541 243.359,179.414 243.117,179.546 242.773 C 179.670 242.451,179.605 242.188,179.401 242.188 C 179.198 242.188,178.831 241.748,178.587 241.211 C 178.342 240.674,177.905 240.234,177.616 240.234 C 176.615 240.234,172.883 235.347,173.330 234.623 C 173.456 234.420,173.352 234.381,173.101 234.537 C 172.849 234.692,172.755 235.027,172.891 235.281 C 173.026 235.535,172.546 235.127,171.823 234.374 C 171.100 233.622,169.629 232.304,168.555 231.445 C 167.480 230.586,166.514 229.789,166.406 229.674 C 166.299 229.559,165.684 229.060,165.039 228.564 C 164.395 228.069,163.859 227.460,163.849 227.211 C 163.840 226.962,163.621 226.801,163.364 226.855 C 163.106 226.908,161.620 226.123,160.061 225.110 C 158.502 224.097,156.875 223.073,156.445 222.835 C 152.523 220.659,149.959 219.350,148.460 218.757 C 147.481 218.371,145.713 217.616,144.531 217.079 C 142.039 215.949,136.663 214.100,134.961 213.788 C 134.316 213.670,133.559 213.390,133.279 213.166 C 132.998 212.942,132.278 212.705,131.680 212.639 C 129.104 212.357,128.692 211.905,130.526 211.373 C 132.057 210.929,141.953 206.895,145.898 205.107 C 153.217 201.790,155.403 200.754,158.984 198.903 C 166.569 194.983,171.714 191.703,171.308 191.047 C 171.195 190.863,171.320 190.721,171.586 190.731 C 172.901 190.778,173.406 190.558,173.635 189.838 C 173.772 189.405,174.007 189.127,174.156 189.219 C 174.306 189.312,175.115 188.875,175.955 188.248 C 176.796 187.622,177.320 187.109,177.120 187.109 C 176.801 187.109,176.705 185.745,176.900 183.984 C 176.958 183.464,177.007 183.464,177.344 183.984 C 177.596 184.375,177.724 184.408,177.728 184.082 C 177.732 183.813,177.998 183.594,178.320 183.594 C 178.643 183.594,178.906 183.418,178.906 183.203 C 178.906 182.988,179.268 182.813,179.711 182.813 C 180.153 182.813,180.415 182.651,180.293 182.453 C 180.171 182.256,180.513 181.746,181.054 181.321 C 181.685 180.824,181.950 180.321,181.795 179.916 C 181.638 179.507,182.083 178.695,183.061 177.607 C 185.634 174.747,186.515 173.643,186.432 173.377 C 186.389 173.237,186.611 172.908,186.927 172.646 C 187.242 172.384,187.500 171.922,187.500 171.619 C 187.500 171.315,188.115 170.704,188.867 170.261 C 189.619 169.817,190.234 169.235,190.234 168.967 C 190.234 168.700,190.586 168.162,191.016 167.773 C 191.445 167.385,191.797 166.857,191.797 166.602 C 191.797 166.346,192.248 165.626,192.800 165.002 C 193.352 164.378,194.451 163.076,195.242 162.109 C 196.033 161.143,196.827 160.244,197.006 160.113 C 197.186 159.981,197.317 159.761,197.299 159.624 C 197.203 158.907,197.361 158.609,198.438 157.483 C 199.082 156.809,199.609 155.935,199.609 155.540 C 199.609 155.146,200.049 154.411,200.586 153.906 C 201.123 153.402,201.563 152.649,201.563 152.234 C 201.563 151.509,202.662 149.900,204.299 148.228 C 204.728 147.791,205.084 147.176,205.092 146.861 C 205.108 146.183,206.209 144.158,206.252 144.727 C 206.268 144.941,206.760 144.119,207.344 142.898 C 207.928 141.678,208.776 140.254,209.228 139.734 C 209.680 139.213,210.624 137.622,211.326 136.196 C 212.507 133.797,213.492 132.484,213.832 132.854 C 213.909 132.939,214.775 134.614,215.757 136.577 C 226.521 158.103,237.553 168.614,262.239 180.861 C 273.889 186.641,275.562 187.872,277.396 192.020 C 278.596 194.732,277.777 198.730,275.571 200.936 C 273.471 203.036,282.481 198.394,286.108 195.508 C 294.079 189.164,297.763 180.221,295.324 173.135 C 293.945 169.126,290.397 166.181,276.825 157.780 C 264.252 149.997,246.495 134.459,245.684 130.531 C 245.414 129.224,245.888 126.931,246.506 126.549 C 246.764 126.390,246.871 126.090,246.743 125.884 C 246.616 125.678,246.860 125.135,247.286 124.678 C 248.060 123.847,248.060 123.846,247.175 123.664 C 239.678 122.123,237.923 121.206,232.991 116.248 C 230.834 114.079,227.246 110.230,225.020 107.693 C 214.854 96.115,205.152 92.114,193.933 94.874 M176.233 238.932 C 176.704 239.434,177.130 239.844,177.180 239.844 C 177.230 239.844,177.077 239.434,176.840 238.932 C 176.604 238.431,176.177 238.021,175.893 238.021 C 175.562 238.021,175.684 238.348,176.233 238.932 M198.438 245.313 C 198.438 245.527,198.833 245.700,199.316 245.697 C 200.027 245.692,200.083 245.619,199.609 245.313 C 198.852 244.823,198.438 244.823,198.438 245.313 M204.290 247.270 C 203.510 247.752,204.090 248.201,204.904 247.746 C 205.270 247.541,205.406 247.273,205.207 247.150 C 205.008 247.027,204.595 247.081,204.290 247.270 M196.484 248.242 C 196.484 248.564,196.309 248.828,196.094 248.828 C 195.879 248.828,195.703 248.564,195.703 248.242 C 195.703 247.920,195.879 247.656,196.094 247.656 C 196.309 247.656,196.484 247.920,196.484 248.242 M293.090 268.555 C 293.092 269.844,293.165 270.324,293.252 269.622 C 293.339 268.920,293.337 267.865,293.248 267.278 C 293.159 266.691,293.088 267.266,293.090 268.555 M278.619 278.796 C 279.212 278.886,280.091 278.883,280.572 278.791 C 281.052 278.698,280.566 278.624,279.492 278.627 C 278.418 278.630,278.025 278.706,278.619 278.796 M279.204 284.643 C 278.830 284.741,278.127 284.745,277.641 284.651 C 277.155 284.558,277.461 284.478,278.320 284.474 C 279.180 284.469,279.577 284.546,279.204 284.643 " stroke="none" fill="#113c51" fill-rule="evenodd"></path><path id="path3" d="M178.693 103.613 L 177.148 105.273 178.809 103.729 C 180.353 102.293,180.648 101.953,180.353 101.953 C 180.289 101.953,179.542 102.700,178.693 103.613 M166.797 116.602 C 165.848 117.568,165.160 118.359,165.267 118.359 C 165.374 118.359,166.239 117.568,167.188 116.602 C 168.136 115.635,168.825 114.844,168.717 114.844 C 168.610 114.844,167.746 115.635,166.797 116.602 M111.364 118.163 C 102.683 127.342,106.856 143.304,119.410 148.938 C 122.084 150.138,125.872 150.995,130.078 151.352 L 133.008 151.601 135.490 149.651 C 139.223 146.720,148.862 137.480,148.611 137.074 C 148.490 136.879,148.548 136.719,148.740 136.719 C 148.932 136.719,149.108 136.499,149.133 136.230 C 149.298 134.401,149.762 132.422,150.025 132.422 C 150.610 132.422,150.927 130.672,150.826 128.003 C 150.769 126.481,150.911 125.119,151.158 124.822 C 151.480 124.434,151.462 124.306,151.088 124.321 C 149.549 124.384,149.230 124.071,150.586 123.828 C 151.945 123.585,151.791 123.541,149.398 123.493 C 146.284 123.430,142.917 122.654,140.572 121.457 C 139.697 121.011,139.095 120.830,139.234 121.055 C 139.373 121.279,140.118 121.763,140.890 122.129 C 142.142 122.724,142.209 122.826,141.508 123.086 C 140.515 123.453,139.996 125.942,140.983 125.602 C 141.415 125.453,141.378 125.562,140.863 125.962 C 140.456 126.277,139.929 126.601,139.691 126.683 C 139.377 126.790,139.383 127.170,139.713 128.065 C 140.118 129.166,140.076 129.367,139.322 129.926 C 138.489 130.544,138.494 130.550,139.648 130.326 C 140.793 130.104,140.798 130.110,139.866 130.573 C 138.162 131.418,137.155 132.650,137.824 133.072 C 138.140 133.272,138.325 133.657,138.234 133.930 C 138.121 134.271,137.714 134.119,136.923 133.439 C 136.292 132.897,135.685 132.544,135.575 132.654 C 135.465 132.765,135.633 133.021,135.949 133.224 C 136.453 133.549,136.452 133.641,135.938 133.978 C 134.183 135.130,131.503 133.710,133.114 132.483 C 133.722 132.020,133.862 131.672,133.604 131.260 C 133.369 130.885,133.407 130.569,133.712 130.352 C 134.038 130.119,134.003 130.072,133.594 130.195 C 133.271 130.292,133.055 130.578,133.112 130.831 C 133.355 131.898,132.056 132.565,131.216 131.805 C 130.520 131.175,130.463 131.170,130.689 131.760 C 130.893 132.291,130.712 132.422,129.771 132.422 C 129.090 132.422,128.505 132.667,128.374 133.008 C 128.251 133.330,127.748 133.591,127.258 133.588 C 126.602 133.583,126.508 133.492,126.903 133.242 C 127.198 133.056,127.366 132.683,127.276 132.415 C 127.158 132.059,126.933 132.107,126.447 132.593 C 125.645 133.395,125.475 132.513,126.270 131.668 C 126.538 131.382,126.300 131.439,125.739 131.794 C 124.968 132.282,124.766 132.674,124.906 133.407 C 125.129 134.575,124.593 134.673,123.915 133.588 C 123.563 133.023,123.166 132.866,122.513 133.030 C 121.766 133.217,121.512 133.042,121.105 132.059 C 120.630 130.912,119.922 130.428,119.922 131.250 C 119.922 131.465,119.746 131.641,119.531 131.641 C 118.917 131.641,119.075 130.577,119.727 130.327 C 120.049 130.204,120.313 129.921,120.313 129.700 C 120.313 129.084,119.146 129.220,118.898 129.864 C 118.635 130.550,117.188 129.825,117.188 129.008 C 117.188 128.737,116.857 128.516,116.454 128.516 C 116.007 128.516,115.530 128.058,115.234 127.344 C 114.967 126.699,114.584 126.172,114.383 126.172 C 114.181 126.172,114.137 125.977,114.284 125.739 C 114.465 125.445,114.254 125.391,113.623 125.570 C 112.908 125.772,112.829 125.739,113.281 125.422 C 113.604 125.197,114.263 125.009,114.746 125.006 C 115.512 125.001,115.625 124.797,115.625 123.414 C 115.625 122.457,115.470 121.925,115.234 122.070 C 115.020 122.203,114.843 122.697,114.843 123.168 C 114.842 123.937,114.721 123.885,113.650 122.656 C 112.720 121.590,112.498 121.023,112.639 120.084 C 112.739 119.421,112.661 118.630,112.467 118.326 C 112.214 117.932,112.420 117.522,113.185 116.896 C 113.775 116.414,114.064 116.019,113.826 116.018 C 113.589 116.016,112.481 116.982,111.364 118.163 M182.813 125.195 C 181.212 126.807,179.990 128.125,180.098 128.125 C 180.205 128.125,181.603 126.807,183.203 125.195 C 184.804 123.584,186.025 122.266,185.918 122.266 C 185.811 122.266,184.413 123.584,182.813 125.195 M250.781 123.438 C 248.740 123.570,247.297 123.712,247.574 123.753 C 247.920 123.805,247.833 124.091,247.294 124.669 C 246.864 125.131,246.616 125.678,246.743 125.884 C 246.871 126.090,246.764 126.390,246.506 126.549 C 245.888 126.931,245.414 129.224,245.684 130.531 C 245.986 131.994,254.307 140.703,259.961 145.473 C 267.557 151.882,268.314 152.449,268.081 151.558 C 267.969 151.131,267.708 150.781,267.500 150.781 C 266.865 150.781,262.775 147.398,261.406 145.741 C 260.516 144.665,259.910 144.251,259.453 144.408 C 258.931 144.587,258.957 144.493,259.570 143.969 C 260.000 143.602,260.152 143.400,259.908 143.521 C 259.346 143.800,258.491 142.791,258.341 141.674 C 257.757 137.327,257.034 134.375,256.553 134.375 C 256.341 134.375,256.259 134.133,256.373 133.837 C 256.487 133.541,256.390 133.109,256.158 132.877 C 255.856 132.575,255.869 132.295,256.205 131.890 C 256.544 131.481,256.552 131.286,256.234 131.179 C 255.992 131.099,255.746 130.335,255.688 129.481 C 255.629 128.628,255.483 127.666,255.363 127.344 C 254.643 125.409,254.737 123.785,255.588 123.442 C 256.587 123.039,256.908 123.039,250.781 123.438 M115.723 125.660 C 116.099 125.758,116.714 125.758,117.090 125.660 C 117.466 125.562,117.158 125.481,116.406 125.481 C 115.654 125.481,115.347 125.562,115.723 125.660 M115.625 126.440 C 115.625 126.619,115.992 126.994,116.440 127.274 C 117.158 127.722,117.238 127.699,117.119 127.079 C 116.985 126.388,115.625 125.805,115.625 126.440 M118.750 128.583 C 118.750 128.761,119.277 128.906,119.922 128.906 C 120.566 128.906,121.094 128.838,121.094 128.755 C 121.094 128.672,120.566 128.527,119.922 128.432 C 119.277 128.338,118.750 128.406,118.750 128.583 M120.982 129.805 C 120.625 130.735,121.084 131.897,121.527 131.185 C 121.787 130.767,122.004 130.759,122.626 131.144 C 123.114 131.446,123.489 131.483,123.638 131.242 C 123.768 131.032,123.600 130.859,123.265 130.859 C 122.930 130.859,122.656 130.665,122.656 130.427 C 122.656 130.189,122.876 130.084,123.145 130.194 C 123.413 130.304,123.984 130.512,124.414 130.656 L 125.195 130.918 124.414 130.434 C 123.984 130.168,123.488 129.759,123.310 129.526 C 123.083 129.228,122.928 129.247,122.789 129.590 C 122.537 130.212,121.598 130.225,121.393 129.610 C 121.296 129.317,121.142 129.390,120.982 129.805 M131.864 133.371 C 132.460 133.967,132.613 134.768,132.129 134.763 C 131.968 134.761,131.633 134.321,131.384 133.786 C 130.876 132.689,131.040 132.547,131.864 133.371 M212.611 133.887 C 212.212 134.478,211.470 135.826,210.961 136.883 C 210.451 137.941,209.668 139.227,209.220 139.743 C 208.772 140.258,207.928 141.678,207.344 142.898 C 206.760 144.119,206.268 144.941,206.252 144.727 C 206.209 144.158,205.108 146.183,205.092 146.861 C 205.084 147.176,204.728 147.791,204.299 148.228 C 202.662 149.900,201.563 151.509,201.563 152.234 C 201.563 152.649,201.123 153.402,200.586 153.906 C 200.049 154.411,199.609 155.146,199.609 155.540 C 199.609 155.935,199.082 156.809,198.438 157.483 C 197.361 158.609,197.203 158.907,197.299 159.624 C 197.317 159.761,197.186 159.981,197.006 160.113 C 196.827 160.244,196.033 161.143,195.242 162.109 C 194.451 163.076,193.352 164.378,192.800 165.002 C 192.248 165.626,191.797 166.346,191.797 166.602 C 191.797 166.857,191.445 167.385,191.016 167.773 C 190.586 168.162,190.234 168.700,190.234 168.967 C 190.234 169.235,189.619 169.817,188.867 170.261 C 188.115 170.704,187.500 171.315,187.500 171.619 C 187.500 171.922,187.242 172.384,186.927 172.646 C 186.611 172.908,186.389 173.237,186.432 173.377 C 186.515 173.643,185.634 174.747,183.061 177.607 C 182.083 178.695,181.638 179.507,181.795 179.916 C 181.950 180.321,181.685 180.824,181.054 181.321 C 180.513 181.746,180.171 182.256,180.293 182.453 C 180.415 182.651,180.153 182.813,179.711 182.813 C 179.268 182.813,178.906 182.988,178.906 183.203 C 178.906 183.418,178.643 183.594,178.320 183.594 C 177.998 183.594,177.732 183.813,177.728 184.082 C 177.724 184.408,177.596 184.375,177.344 183.984 C 177.007 183.464,176.958 183.464,176.900 183.984 C 176.705 185.745,176.801 187.109,177.120 187.109 C 177.320 187.109,176.796 187.622,175.955 188.248 C 175.115 188.875,174.306 189.312,174.156 189.219 C 174.007 189.127,173.772 189.405,173.635 189.838 C 173.406 190.558,172.901 190.778,171.586 190.731 C 171.320 190.721,171.195 190.863,171.308 191.047 C 171.714 191.703,166.569 194.983,158.984 198.903 C 155.403 200.754,153.217 201.790,145.898 205.107 C 141.953 206.895,132.057 210.929,130.526 211.373 C 128.692 211.905,129.104 212.357,131.680 212.639 C 132.278 212.705,132.998 212.942,133.279 213.166 C 133.559 213.390,134.316 213.670,134.961 213.788 C 136.663 214.100,142.039 215.949,144.531 217.079 C 145.713 217.616,147.481 218.371,148.460 218.757 C 149.959 219.350,152.523 220.659,156.445 222.835 C 156.875 223.073,158.502 224.097,160.061 225.110 C 161.620 226.123,163.106 226.908,163.364 226.855 C 163.621 226.801,163.840 226.962,163.849 227.211 C 163.859 227.460,164.395 228.069,165.039 228.564 C 165.684 229.060,166.299 229.559,166.406 229.674 C 166.514 229.789,167.480 230.586,168.555 231.445 C 169.629 232.304,171.100 233.622,171.823 234.374 C 172.546 235.127,173.026 235.535,172.891 235.281 C 172.755 235.027,172.866 234.691,173.138 234.535 C 173.410 234.378,173.507 234.389,173.354 234.559 C 173.200 234.729,173.281 235.241,173.534 235.696 C 173.787 236.151,173.952 236.668,173.901 236.845 C 173.850 237.023,173.989 237.056,174.209 236.920 C 174.429 236.784,174.609 236.853,174.609 237.073 C 174.609 237.716,176.982 240.234,177.588 240.234 C 177.893 240.234,178.342 240.674,178.587 241.211 C 178.831 241.748,179.198 242.188,179.401 242.188 C 179.605 242.188,179.670 242.451,179.546 242.773 C 179.414 243.117,179.541 243.359,179.853 243.359 C 180.146 243.359,180.486 243.096,180.610 242.773 C 180.764 242.372,181.392 242.188,182.605 242.188 L 184.375 242.188 184.375 243.715 L 184.375 245.243 186.740 245.375 C 188.040 245.448,189.259 245.352,189.449 245.162 C 189.649 244.961,190.070 245.093,190.452 245.475 C 191.251 246.273,190.066 247.546,189.196 246.824 C 188.902 246.580,188.655 246.587,188.495 246.845 C 188.360 247.064,188.731 247.364,189.319 247.511 C 189.999 247.682,190.443 247.615,190.539 247.327 C 190.622 247.079,191.027 246.875,191.439 246.875 C 191.927 246.875,192.188 246.603,192.188 246.094 C 192.188 245.562,192.448 245.313,193.003 245.313 C 193.738 245.313,193.793 245.467,193.555 246.875 C 193.381 247.902,193.436 248.438,193.716 248.438 C 193.949 248.438,194.164 247.954,194.192 247.363 C 194.238 246.397,194.272 246.427,194.531 247.656 C 194.690 248.408,194.842 248.716,194.870 248.340 C 194.899 247.964,195.098 247.656,195.313 247.656 C 195.527 247.656,195.703 247.393,195.703 247.070 C 195.703 246.748,195.879 246.484,196.094 246.484 C 196.309 246.484,196.484 246.673,196.484 246.903 C 196.484 247.702,197.607 248.438,198.829 248.438 C 200.720 248.438,200.281 249.765,198.337 249.926 C 197.176 250.022,196.875 250.208,196.875 250.828 C 196.875 251.257,197.033 251.511,197.226 251.392 C 197.895 250.978,200.000 251.645,200.000 252.272 C 200.000 252.774,200.095 252.754,200.526 252.164 C 200.959 251.573,201.109 251.542,201.370 251.992 C 201.545 252.293,201.546 252.410,201.372 252.253 C 201.198 252.096,200.396 252.852,199.590 253.933 C 198.137 255.879,196.159 257.811,195.618 257.812 C 195.463 257.812,195.442 258.087,195.571 258.422 C 195.727 258.829,195.528 259.103,194.968 259.250 C 194.508 259.370,194.024 259.897,193.893 260.422 C 193.738 261.038,193.457 261.299,193.096 261.161 C 192.789 261.043,192.638 261.108,192.760 261.306 C 192.882 261.504,192.588 261.941,192.107 262.278 C 191.626 262.615,191.451 262.891,191.719 262.891 C 192.064 262.891,192.011 263.204,191.539 263.965 C 190.624 265.439,191.281 264.770,194.129 261.328 C 198.738 255.758,222.577 230.149,227.519 225.458 C 233.599 219.688,241.845 215.547,270.898 203.673 C 273.691 202.531,275.744 201.589,275.460 201.580 C 275.075 201.567,275.104 201.403,275.571 200.936 C 278.961 197.546,278.644 192.050,274.835 188.177 C 273.259 186.575,269.576 184.301,269.067 184.616 C 268.893 184.724,268.750 184.630,268.750 184.408 C 268.750 183.950,266.436 182.653,266.142 182.946 C 266.037 183.052,265.614 182.801,265.202 182.389 C 264.790 181.978,264.233 181.643,263.965 181.647 C 263.662 181.650,263.625 181.762,263.867 181.940 C 264.082 182.097,264.319 182.666,264.393 183.203 C 264.467 183.740,264.687 184.238,264.881 184.310 C 265.531 184.549,265.300 187.500,264.632 187.500 C 264.175 187.500,264.056 187.855,264.143 188.965 C 264.247 190.287,264.172 190.418,263.379 190.307 C 262.652 190.206,262.500 190.370,262.500 191.254 L 262.500 192.324 261.596 191.474 C 260.504 190.449,259.282 190.320,259.647 191.269 C 259.851 191.801,259.698 191.875,258.760 191.696 C 258.136 191.576,257.289 191.659,256.879 191.879 C 256.277 192.201,256.176 192.163,256.358 191.687 C 256.734 190.708,254.363 190.554,253.843 191.524 C 253.581 192.014,253.335 192.137,253.167 191.864 C 252.869 191.383,251.172 191.697,251.172 192.233 C 251.172 192.423,250.996 192.578,250.781 192.578 C 249.942 192.578,250.452 191.852,251.563 191.465 C 252.207 191.240,252.734 190.836,252.734 190.567 C 252.734 190.187,252.630 190.182,252.266 190.547 C 252.008 190.805,251.480 191.016,251.094 191.016 C 250.707 191.016,250.391 191.191,250.391 191.406 C 250.391 191.621,250.127 191.797,249.805 191.797 C 249.482 191.797,249.219 191.983,249.219 192.211 C 249.219 192.438,249.438 192.492,249.707 192.331 C 250.039 192.132,250.023 192.249,249.659 192.698 C 249.022 193.484,248.792 193.538,248.926 192.871 C 248.994 192.528,248.444 192.397,247.070 192.430 C 245.996 192.457,245.513 192.400,245.996 192.306 C 248.120 191.889,247.019 190.625,244.531 190.625 C 242.448 190.625,242.188 190.538,242.188 189.844 C 242.188 189.410,241.927 189.063,241.602 189.063 C 241.279 189.063,241.016 188.799,241.016 188.477 C 241.016 188.154,240.840 187.891,240.625 187.891 C 240.410 187.891,240.234 188.242,240.234 188.672 C 240.234 189.102,240.059 189.453,239.844 189.453 C 239.520 189.453,239.340 188.334,239.488 187.242 C 239.564 186.683,238.261 186.301,237.598 186.687 C 237.218 186.908,237.131 187.091,237.402 187.097 C 237.671 187.104,237.891 187.373,237.891 187.695 C 237.891 188.405,237.252 188.473,236.976 187.793 C 236.825 187.419,236.688 187.434,236.392 187.858 C 236.078 188.309,235.779 188.183,234.770 187.174 C 234.090 186.494,233.177 185.938,232.741 185.938 C 232.191 185.938,232.020 185.758,232.185 185.352 C 232.315 185.029,232.523 184.515,232.647 184.210 C 232.780 183.884,232.537 183.474,232.062 183.219 C 231.359 182.843,231.250 182.896,231.250 183.608 C 231.250 184.484,230.409 185.547,229.715 185.547 C 229.485 185.547,229.297 185.371,229.297 185.156 C 229.297 184.941,229.561 184.766,229.883 184.766 C 230.205 184.766,230.469 184.612,230.469 184.425 C 230.469 183.997,227.330 184.072,226.634 184.516 C 226.351 184.696,226.005 184.729,225.864 184.588 C 225.724 184.448,225.867 184.169,226.183 183.969 C 226.995 183.456,225.794 183.460,224.439 183.975 C 223.574 184.304,223.438 184.251,223.438 183.584 C 223.438 183.159,223.175 182.813,222.852 182.813 C 222.529 182.813,222.263 182.593,222.260 182.324 C 222.256 181.997,222.126 182.029,221.866 182.422 C 221.535 182.922,221.378 182.878,220.791 182.122 C 220.189 181.347,219.803 181.249,217.702 181.341 C 215.624 181.431,215.198 181.327,214.538 180.566 C 214.119 180.083,213.489 179.688,213.138 179.688 C 212.716 179.688,212.500 179.353,212.500 178.697 C 212.500 177.824,212.406 177.757,211.710 178.130 C 210.827 178.602,209.663 177.815,209.856 176.876 C 209.924 176.545,209.448 176.325,208.496 176.246 C 207.690 176.179,207.031 175.979,207.031 175.802 C 207.031 175.237,209.378 175.111,210.073 175.639 C 211.056 176.386,211.402 176.280,210.853 175.401 C 210.353 174.601,205.082 174.351,205.079 175.128 C 205.079 175.305,204.605 174.888,204.026 174.201 C 203.107 173.108,203.050 172.896,203.576 172.511 C 204.104 172.124,204.043 171.855,203.073 170.313 C 202.204 168.931,201.966 168.738,201.961 169.411 C 201.956 169.881,201.755 170.389,201.512 170.539 C 201.243 170.705,201.143 170.599,201.255 170.269 C 201.357 169.971,201.148 169.463,200.791 169.141 C 200.433 168.818,200.032 168.261,199.899 167.902 C 199.584 167.050,198.223 167.265,198.303 168.154 C 198.346 168.627,198.240 168.709,197.956 168.425 C 197.671 168.140,197.851 167.655,198.548 166.827 C 199.208 166.042,199.624 165.801,199.771 166.120 C 199.893 166.385,199.907 166.244,199.801 165.807 C 199.672 165.270,200.224 164.191,201.499 162.486 C 207.601 154.332,213.639 143.227,214.532 138.519 C 214.796 137.131,215.153 136.083,215.327 136.190 C 215.500 136.297,215.252 135.581,214.775 134.599 C 213.761 132.513,213.577 132.452,212.611 133.887 M137.215 134.736 C 137.353 135.264,137.250 135.426,136.870 135.281 C 136.572 135.166,136.328 134.828,136.328 134.529 C 136.328 133.717,136.989 133.871,137.215 134.736 M128.125 134.790 C 128.125 134.991,127.773 135.156,127.344 135.156 C 126.914 135.156,126.563 135.018,126.563 134.849 C 126.563 134.680,126.914 134.515,127.344 134.482 C 127.773 134.450,128.125 134.588,128.125 134.790 M135.844 136.597 C 135.471 136.694,134.768 136.698,134.282 136.604 C 133.796 136.511,134.102 136.431,134.961 136.427 C 135.820 136.422,136.218 136.499,135.844 136.597 M198.815 140.918 L 196.680 143.164 198.926 141.029 C 200.161 139.855,201.172 138.844,201.172 138.783 C 201.172 138.493,200.798 138.831,198.815 140.918 M164.630 143.457 L 163.086 145.117 164.746 143.573 C 166.290 142.137,166.586 141.797,166.290 141.797 C 166.226 141.797,165.479 142.544,164.630 143.457 M269.434 151.057 C 269.917 151.150,270.708 151.150,271.191 151.057 C 271.675 150.964,271.279 150.888,270.313 150.888 C 269.346 150.888,268.950 150.964,269.434 151.057 M180.259 160.254 L 178.320 162.305 180.371 160.366 C 181.499 159.300,182.422 158.377,182.422 158.315 C 182.422 158.024,182.060 158.348,180.259 160.254 M233.008 161.719 C 234.716 163.438,236.202 164.844,236.310 164.844 C 236.417 164.844,235.107 163.438,233.398 161.719 C 231.690 160.000,230.204 158.594,230.096 158.594 C 229.989 158.594,231.299 160.000,233.008 161.719 M174.198 166.309 L 172.852 167.773 174.316 166.427 C 175.680 165.174,175.961 164.844,175.663 164.844 C 175.597 164.844,174.938 165.503,174.198 166.309 M111.983 165.491 C 111.841 165.633,111.909 165.970,112.134 166.241 C 112.446 166.617,112.314 166.708,111.571 166.626 C 109.988 166.452,98.748 178.961,99.667 179.874 C 99.743 179.950,101.255 178.646,103.027 176.977 C 104.800 175.308,106.251 174.049,106.252 174.178 C 106.253 174.308,106.649 173.966,107.131 173.419 C 107.613 172.872,107.832 172.683,107.617 172.999 C 107.335 173.415,107.524 173.380,108.301 172.875 C 109.277 172.240,109.903 171.502,108.984 172.070 C 108.770 172.203,108.594 172.144,108.594 171.940 C 108.594 171.735,108.869 171.463,109.204 171.334 C 109.546 171.202,109.692 170.900,109.535 170.646 C 109.369 170.378,109.424 170.297,109.669 170.448 C 110.103 170.717,113.281 167.200,113.281 166.450 C 113.281 166.211,113.007 166.016,112.672 166.016 C 112.337 166.016,112.172 165.840,112.305 165.625 C 112.577 165.185,112.374 165.100,111.983 165.491 M201.469 171.362 C 201.096 171.460,200.393 171.463,199.907 171.370 C 199.421 171.277,199.727 171.197,200.586 171.192 C 201.445 171.188,201.843 171.264,201.469 171.362 M246.875 172.831 C 246.875 172.939,247.402 173.300,248.047 173.633 C 248.691 173.966,249.219 174.151,249.219 174.044 C 249.219 173.936,248.691 173.575,248.047 173.242 C 247.402 172.909,246.875 172.724,246.875 172.831 M202.734 175.586 C 202.734 175.908,202.559 176.172,202.344 176.172 C 202.129 176.172,201.953 175.908,201.953 175.586 C 201.953 175.264,202.129 175.000,202.344 175.000 C 202.559 175.000,202.734 175.264,202.734 175.586 M216.452 175.996 C 216.427 176.651,216.233 177.361,216.020 177.573 C 215.766 177.828,215.897 177.979,216.403 178.017 C 216.826 178.049,217.273 177.913,217.395 177.714 C 217.518 177.515,217.302 177.453,216.915 177.575 C 216.247 177.787,216.246 177.769,216.895 177.235 C 217.593 176.660,217.872 175.554,217.217 175.958 C 217.018 176.081,216.775 175.872,216.676 175.493 C 216.576 175.108,216.477 175.329,216.452 175.996 M210.156 178.906 C 210.156 179.121,209.893 179.297,209.570 179.297 C 209.248 179.297,208.984 179.121,208.984 178.906 C 208.984 178.691,209.248 178.516,209.570 178.516 C 209.893 178.516,210.156 178.691,210.156 178.906 M215.234 180.078 C 215.234 180.711,215.495 180.859,216.602 180.859 C 218.033 180.859,218.286 180.551,217.500 179.766 C 216.714 178.980,215.234 179.184,215.234 180.078 M244.141 187.305 C 244.141 187.627,244.316 187.891,244.531 187.891 C 244.746 187.891,244.922 187.627,244.922 187.305 C 244.922 186.982,244.746 186.719,244.531 186.719 C 244.316 186.719,244.141 186.982,244.141 187.305 M243.359 187.375 C 243.359 187.593,242.989 187.937,242.536 188.139 C 241.755 188.487,241.748 188.535,242.404 189.077 C 243.013 189.580,243.072 189.578,242.900 189.063 C 242.793 188.740,242.984 188.271,243.324 188.020 C 243.665 187.769,243.813 187.432,243.652 187.272 C 243.491 187.111,243.359 187.157,243.359 187.375 M235.423 190.097 C 235.312 190.209,234.870 189.948,234.440 189.518 C 234.010 189.089,233.762 188.634,233.889 188.507 C 234.015 188.381,234.457 188.642,234.872 189.087 C 235.286 189.531,235.535 189.986,235.423 190.097 M253.906 192.969 C 253.906 193.184,253.643 193.359,253.320 193.359 C 252.998 193.359,252.734 193.184,252.734 192.969 C 252.734 192.754,252.998 192.578,253.320 192.578 C 253.643 192.578,253.906 192.754,253.906 192.969 M302.244 212.024 C 301.889 212.608,300.994 213.735,300.255 214.527 C 299.516 215.320,299.010 216.067,299.130 216.187 C 299.250 216.308,299.134 216.406,298.870 216.406 C 298.607 216.406,298.517 216.609,298.670 216.857 C 298.828 217.113,298.779 217.203,298.555 217.065 C 298.338 216.931,297.739 217.298,297.225 217.880 C 296.342 218.880,296.339 218.897,297.177 218.191 L 298.064 217.441 297.461 218.886 C 297.129 219.680,296.509 220.678,296.085 221.103 C 295.660 221.527,295.313 222.043,295.313 222.248 C 295.313 223.675,289.273 230.945,284.959 234.711 C 282.558 236.807,283.380 236.432,286.478 234.018 C 289.282 231.832,289.415 231.704,292.578 228.101 C 293.975 226.511,295.513 224.803,295.996 224.306 C 296.479 223.809,296.875 223.278,296.875 223.126 C 296.875 222.973,297.379 222.373,297.995 221.792 C 299.386 220.479,302.175 215.188,302.694 212.877 C 303.163 210.790,303.084 210.640,302.244 212.024 M103.246 218.164 C 103.248 219.453,103.321 219.933,103.408 219.231 C 103.495 218.529,103.493 217.475,103.404 216.888 C 103.315 216.301,103.244 216.875,103.246 218.164 M259.180 236.537 C 258.198 237.010,258.167 237.063,258.984 236.866 C 259.521 236.737,260.128 236.475,260.332 236.284 C 260.838 235.811,260.560 235.872,259.180 236.537 M281.348 237.154 C 280.016 238.007,279.585 238.580,280.762 237.933 C 281.658 237.440,283.062 236.355,282.813 236.347 C 282.705 236.344,282.046 236.707,281.348 237.154 M176.840 238.932 C 177.077 239.434,177.230 239.844,177.180 239.844 C 177.130 239.844,176.704 239.434,176.233 238.932 C 175.684 238.348,175.562 238.021,175.893 238.021 C 176.177 238.021,176.604 238.431,176.840 238.932 M199.609 245.313 C 200.083 245.619,200.027 245.692,199.316 245.697 C 198.833 245.700,198.438 245.527,198.438 245.313 C 198.438 244.823,198.852 244.823,199.609 245.313 M204.904 247.746 C 204.538 247.951,204.125 248.005,203.986 247.866 C 203.642 247.522,204.755 246.870,205.207 247.150 C 205.406 247.273,205.270 247.541,204.904 247.746 M195.703 248.242 C 195.703 248.564,195.879 248.828,196.094 248.828 C 196.309 248.828,196.484 248.564,196.484 248.242 C 196.484 247.920,196.309 247.656,196.094 247.656 C 195.879 247.656,195.703 247.920,195.703 248.242 M237.109 249.414 C 236.161 250.381,235.472 251.172,235.580 251.172 C 235.687 251.172,236.551 250.381,237.500 249.414 C 238.449 248.447,239.137 247.656,239.030 247.656 C 238.922 247.656,238.058 248.447,237.109 249.414 M233.374 252.832 L 232.227 254.102 233.496 252.954 C 234.679 251.885,234.945 251.563,234.643 251.563 C 234.576 251.563,234.005 252.134,233.374 252.832 M284.827 252.560 C 284.578 253.106,284.375 253.808,284.375 254.120 C 284.375 254.432,284.023 254.688,283.594 254.688 C 283.113 254.688,282.809 254.951,282.804 255.371 C 282.794 256.205,279.963 258.284,279.225 258.001 C 278.915 257.882,278.078 258.534,277.218 259.563 C 276.406 260.534,275.477 261.328,275.153 261.328 C 274.829 261.328,274.661 261.485,274.779 261.678 C 274.898 261.870,274.724 262.132,274.392 262.259 C 274.046 262.392,273.890 262.326,274.026 262.105 C 274.157 261.893,274.079 261.719,273.851 261.719 C 273.624 261.719,273.429 262.114,273.419 262.598 C 273.407 263.192,272.785 263.916,271.495 264.834 C 270.447 265.581,269.598 266.284,269.607 266.397 C 269.616 266.509,269.603 267.085,269.578 267.676 C 269.529 268.813,268.750 269.211,268.750 268.099 C 268.750 267.366,268.344 267.614,268.221 268.421 C 268.178 268.709,268.004 269.166,267.835 269.436 C 267.648 269.737,267.765 270.018,268.139 270.162 C 269.411 270.650,268.850 271.875,267.356 271.875 C 265.447 271.875,265.539 273.435,267.480 274.007 C 268.179 274.212,268.750 274.620,268.750 274.913 C 268.750 275.762,269.779 276.563,270.871 276.563 C 271.609 276.563,271.875 276.766,271.875 277.331 C 271.875 277.857,272.062 278.029,272.466 277.874 C 273.713 277.395,276.563 278.126,276.563 278.924 C 276.563 279.609,276.769 279.654,278.906 279.431 C 280.546 279.259,281.250 279.320,281.250 279.632 C 281.250 279.877,280.898 280.078,280.469 280.078 C 280.035 280.078,279.688 280.339,279.688 280.664 C 279.688 281.076,280.103 281.250,281.083 281.250 C 281.850 281.250,282.741 281.514,283.064 281.836 C 283.386 282.158,283.999 282.422,284.426 282.422 C 284.937 282.422,285.106 282.589,284.921 282.910 C 284.766 283.179,285.075 283.003,285.607 282.520 C 286.747 281.483,287.290 281.387,286.947 282.282 C 286.742 282.816,286.799 282.841,287.291 282.433 C 287.616 282.163,287.769 281.760,287.631 281.536 C 287.492 281.312,287.562 281.242,287.786 281.381 C 288.010 281.519,288.432 281.337,288.725 280.975 C 289.033 280.596,289.063 280.436,288.797 280.595 C 288.543 280.748,288.208 280.666,288.053 280.415 C 287.893 280.156,287.938 280.061,288.157 280.197 C 288.640 280.495,290.320 279.361,290.048 278.920 C 289.938 278.743,290.122 278.492,290.457 278.364 C 290.791 278.236,290.967 277.972,290.847 277.778 C 290.728 277.584,290.910 277.318,291.254 277.186 C 291.610 277.050,291.782 276.696,291.654 276.364 C 291.531 276.043,291.611 275.781,291.832 275.781 C 292.053 275.781,292.125 275.605,291.992 275.391 C 291.859 275.176,291.949 275.000,292.191 275.000 C 292.462 275.000,292.529 274.681,292.367 274.170 C 292.178 273.574,292.238 273.422,292.578 273.633 C 292.932 273.851,292.986 273.590,292.792 272.607 C 292.648 271.882,292.673 271.492,292.847 271.740 C 293.022 271.987,293.168 270.460,293.173 268.345 C 293.178 266.131,293.040 264.697,292.849 264.965 C 292.649 265.245,292.590 264.977,292.701 264.293 C 292.902 263.049,292.308 260.910,291.635 260.455 C 291.402 260.297,291.346 260.166,291.512 260.162 C 291.971 260.153,290.277 257.031,289.813 257.031 C 289.590 257.031,289.514 256.858,289.645 256.646 C 289.776 256.434,289.146 255.511,288.245 254.595 C 287.344 253.679,286.747 253.177,286.918 253.478 C 287.127 253.846,287.081 253.935,286.779 253.748 C 286.531 253.595,286.328 253.238,286.328 252.954 C 286.328 251.803,285.296 251.532,284.827 252.560 M112.479 253.809 L 111.133 255.273 112.598 253.927 C 113.961 252.674,114.242 252.344,113.944 252.344 C 113.879 252.344,113.219 253.003,112.479 253.809 M227.524 258.691 L 225.586 260.742 227.637 258.804 C 228.765 257.738,229.688 256.815,229.688 256.753 C 229.688 256.461,229.326 256.786,227.524 258.691 M222.635 263.965 L 221.289 265.430 222.754 264.084 C 224.117 262.831,224.398 262.500,224.100 262.500 C 224.035 262.500,223.376 263.159,222.635 263.965 M214.832 272.168 L 212.305 274.805 214.941 272.277 C 217.391 269.929,217.757 269.531,217.469 269.531 C 217.409 269.531,216.223 270.718,214.832 272.168 M189.544 271.094 C 189.544 271.846,189.624 272.153,189.722 271.777 C 189.821 271.401,189.821 270.786,189.722 270.410 C 189.624 270.034,189.544 270.342,189.544 271.094 M149.907 274.886 C 150.393 274.979,151.096 274.976,151.469 274.878 C 151.843 274.780,151.445 274.704,150.586 274.708 C 149.727 274.712,149.421 274.792,149.907 274.886 M280.572 278.791 C 280.091 278.883,279.212 278.886,278.619 278.796 C 278.025 278.706,278.418 278.630,279.492 278.627 C 280.566 278.624,281.052 278.698,280.572 278.791 M164.063 279.419 C 164.063 279.486,164.634 280.058,165.332 280.689 L 166.602 281.836 165.454 280.566 C 164.385 279.383,164.063 279.117,164.063 279.419 M283.368 283.424 C 283.700 283.667,283.870 283.969,283.744 284.094 C 283.619 284.220,283.929 284.209,284.434 284.071 C 285.168 283.871,285.213 283.792,284.663 283.678 C 284.285 283.599,284.069 283.383,284.183 283.197 C 284.298 283.012,284.025 282.887,283.578 282.921 C 282.873 282.974,282.845 283.042,283.368 283.424 M277.641 284.651 C 278.127 284.745,278.830 284.741,279.204 284.643 C 279.577 284.546,279.180 284.469,278.320 284.474 C 277.461 284.478,277.155 284.558,277.641 284.651 " stroke="none" fill="#1f8e89" fill-rule="evenodd"></path><path id="path4" d="M199.512 94.026 C 199.995 94.119,200.786 94.119,201.270 94.026 C 201.753 93.933,201.357 93.856,200.391 93.856 C 199.424 93.856,199.028 93.933,199.512 94.026 M120.703 113.281 C 121.160 113.623,121.010 113.664,120.020 113.469 C 119.160 113.300,118.750 113.369,118.750 113.683 C 118.750 113.950,118.481 114.043,118.114 113.902 C 117.740 113.758,117.247 113.942,116.914 114.349 C 116.603 114.728,116.460 114.819,116.596 114.551 C 116.978 113.797,116.526 113.971,115.583 114.941 C 115.113 115.425,114.864 115.583,115.029 115.293 C 115.271 114.867,115.170 114.851,114.504 115.207 C 114.051 115.450,113.722 115.841,113.773 116.076 C 113.825 116.311,113.623 116.593,113.325 116.701 C 112.953 116.836,112.879 116.728,113.089 116.359 C 113.258 116.063,112.667 116.515,111.776 117.364 C 110.128 118.935,109.478 119.876,110.979 118.518 C 112.234 117.381,112.945 118.052,112.639 120.084 C 112.498 121.023,112.720 121.590,113.650 122.656 C 114.721 123.885,114.842 123.937,114.843 123.168 C 114.843 122.697,115.020 122.203,115.234 122.070 C 115.470 121.925,115.625 122.457,115.625 123.414 C 115.625 124.797,115.512 125.001,114.746 125.006 C 114.263 125.009,113.604 125.197,113.281 125.422 C 112.829 125.739,112.908 125.772,113.623 125.570 C 114.254 125.391,114.465 125.445,114.284 125.739 C 114.137 125.977,114.181 126.172,114.383 126.172 C 114.584 126.172,114.967 126.699,115.234 127.344 C 115.530 128.058,116.007 128.516,116.454 128.516 C 116.857 128.516,117.188 128.737,117.188 129.008 C 117.188 129.825,118.635 130.550,118.898 129.864 C 119.146 129.220,120.313 129.084,120.313 129.700 C 120.313 129.921,120.049 130.204,119.727 130.327 C 119.075 130.577,118.917 131.641,119.531 131.641 C 119.746 131.641,119.922 131.465,119.922 131.250 C 119.922 130.428,120.630 130.912,121.105 132.059 C 121.512 133.042,121.766 133.217,122.513 133.030 C 123.166 132.866,123.563 133.023,123.915 133.588 C 124.593 134.673,125.129 134.575,124.906 133.407 C 124.766 132.674,124.968 132.282,125.739 131.794 C 126.300 131.439,126.538 131.382,126.270 131.668 C 125.475 132.513,125.645 133.395,126.447 132.593 C 126.933 132.107,127.158 132.059,127.276 132.415 C 127.366 132.683,127.198 133.056,126.903 133.242 C 126.508 133.492,126.602 133.583,127.258 133.588 C 127.748 133.591,128.251 133.330,128.374 133.008 C 128.505 132.667,129.090 132.422,129.771 132.422 C 130.712 132.422,130.893 132.291,130.689 131.760 C 130.463 131.170,130.520 131.175,131.216 131.805 C 132.056 132.565,133.355 131.898,133.112 130.831 C 133.055 130.578,133.271 130.292,133.594 130.195 C 134.003 130.072,134.038 130.119,133.712 130.352 C 133.407 130.569,133.369 130.885,133.604 131.260 C 133.862 131.672,133.722 132.020,133.114 132.483 C 131.503 133.710,134.183 135.130,135.938 133.978 C 136.452 133.641,136.453 133.549,135.949 133.224 C 135.633 133.021,135.465 132.765,135.575 132.654 C 135.685 132.544,136.292 132.897,136.923 133.439 C 137.714 134.119,138.121 134.271,138.234 133.930 C 138.325 133.657,138.140 133.272,137.824 133.072 C 137.155 132.650,138.162 131.418,139.866 130.573 C 140.798 130.110,140.793 130.104,139.648 130.326 C 138.494 130.550,138.489 130.544,139.322 129.926 C 140.076 129.367,140.118 129.166,139.713 128.065 C 139.383 127.170,139.377 126.790,139.691 126.683 C 139.929 126.601,140.456 126.277,140.863 125.962 C 141.378 125.562,141.415 125.453,140.983 125.602 C 139.988 125.944,140.517 123.452,141.518 123.082 C 142.232 122.818,142.244 122.762,141.639 122.530 C 141.269 122.387,141.065 122.111,141.187 121.914 C 141.308 121.718,141.070 121.645,140.659 121.753 C 140.148 121.886,139.696 121.622,139.238 120.923 C 138.868 120.359,138.480 119.983,138.375 120.088 C 138.270 120.193,137.841 119.891,137.422 119.417 C 137.002 118.943,136.775 118.818,136.917 119.141 C 137.059 119.463,136.618 119.111,135.938 118.359 C 135.257 117.607,134.826 117.256,134.980 117.578 C 135.134 117.900,134.733 117.608,134.088 116.928 C 132.731 115.495,129.069 113.526,128.306 113.819 C 128.019 113.929,127.719 113.821,127.638 113.578 C 127.548 113.308,126.069 113.081,123.804 112.990 C 121.016 112.878,120.260 112.949,120.703 113.281 M274.805 113.119 C 271.579 113.859,269.376 114.764,267.188 116.247 C 265.791 117.194,263.446 118.779,261.977 119.768 C 260.508 120.757,258.399 121.894,257.290 122.293 C 256.181 122.692,255.537 123.036,255.859 123.058 C 256.216 123.081,256.110 123.232,255.588 123.442 C 254.737 123.785,254.643 125.409,255.363 127.344 C 255.483 127.666,255.629 128.628,255.688 129.481 C 255.746 130.335,255.992 131.099,256.234 131.179 C 256.552 131.286,256.544 131.481,256.205 131.890 C 255.869 132.295,255.856 132.575,256.158 132.877 C 256.390 133.109,256.487 133.541,256.373 133.837 C 256.259 134.133,256.341 134.375,256.553 134.375 C 257.034 134.375,257.757 137.327,258.341 141.674 C 258.491 142.791,259.346 143.800,259.908 143.521 C 260.152 143.400,260.000 143.602,259.570 143.969 C 258.957 144.493,258.931 144.587,259.453 144.408 C 259.910 144.251,260.516 144.665,261.406 145.741 C 262.822 147.455,266.873 150.781,267.545 150.781 C 267.778 150.781,267.969 150.957,267.969 151.172 C 267.969 151.387,268.452 151.550,269.043 151.535 C 270.013 151.510,270.041 151.472,269.336 151.140 C 268.809 150.893,269.510 150.842,271.484 150.986 C 273.431 151.127,274.224 151.072,273.848 150.821 C 273.463 150.565,273.826 150.517,274.982 150.672 C 276.316 150.851,276.615 150.791,276.369 150.393 C 276.129 150.006,276.299 149.947,277.090 150.146 C 277.730 150.306,278.125 150.245,278.125 149.984 C 278.125 149.753,278.311 149.678,278.539 149.819 C 279.090 150.160,281.139 149.290,281.402 148.604 C 281.517 148.305,281.844 148.149,282.128 148.258 C 282.412 148.367,283.015 148.111,283.468 147.689 C 283.921 147.267,284.365 146.995,284.454 147.084 C 285.229 147.859,290.504 141.043,292.174 137.109 C 297.239 125.182,286.555 110.426,274.805 113.119 M117.090 125.660 C 116.714 125.758,116.099 125.758,115.723 125.660 C 115.347 125.562,115.654 125.481,116.406 125.481 C 117.158 125.481,117.466 125.562,117.090 125.660 M117.119 127.079 C 117.238 127.699,117.158 127.722,116.440 127.274 C 115.450 126.656,115.372 126.066,116.304 126.245 C 116.678 126.317,117.044 126.693,117.119 127.079 M121.094 128.755 C 121.094 128.838,120.566 128.906,119.922 128.906 C 119.277 128.906,118.750 128.761,118.750 128.583 C 118.750 128.406,119.277 128.338,119.922 128.432 C 120.566 128.527,121.094 128.672,121.094 128.755 M122.070 130.078 C 122.357 130.078,122.680 129.858,122.789 129.590 C 122.928 129.247,123.083 129.228,123.310 129.526 C 123.488 129.759,123.984 130.168,124.414 130.434 L 125.195 130.918 124.414 130.656 C 123.984 130.512,123.413 130.304,123.145 130.194 C 122.876 130.084,122.656 130.189,122.656 130.427 C 122.656 130.665,122.930 130.859,123.265 130.859 C 123.600 130.859,123.768 131.032,123.638 131.242 C 123.489 131.483,123.114 131.446,122.626 131.144 C 122.004 130.759,121.787 130.767,121.527 131.185 C 121.084 131.897,120.625 130.735,120.982 129.805 C 121.142 129.390,121.296 129.317,121.393 129.610 C 121.479 129.867,121.784 130.078,122.070 130.078 M175.958 132.520 L 174.414 134.180 176.074 132.636 C 177.618 131.200,177.914 130.859,177.618 130.859 C 177.555 130.859,176.807 131.606,175.958 132.520 M131.384 133.786 C 131.847 134.784,132.422 135.095,132.422 134.347 C 132.422 133.930,131.473 132.813,131.119 132.813 C 131.017 132.813,131.136 133.251,131.384 133.786 M136.328 134.529 C 136.328 134.828,136.572 135.166,136.870 135.281 C 137.250 135.426,137.353 135.264,137.215 134.736 C 136.989 133.871,136.328 133.717,136.328 134.529 M126.563 134.849 C 126.563 135.018,126.914 135.156,127.344 135.156 C 127.773 135.156,128.125 134.991,128.125 134.790 C 128.125 134.588,127.773 134.450,127.344 134.482 C 126.914 134.515,126.563 134.680,126.563 134.849 M214.538 138.490 C 213.639 143.229,207.620 154.306,201.499 162.486 C 200.224 164.191,199.672 165.270,199.801 165.807 C 199.907 166.244,199.893 166.385,199.771 166.120 C 199.624 165.801,199.208 166.042,198.548 166.827 C 197.851 167.655,197.671 168.140,197.956 168.425 C 198.240 168.709,198.346 168.627,198.303 168.154 C 198.223 167.265,199.584 167.050,199.899 167.902 C 200.032 168.261,200.433 168.818,200.791 169.141 C 201.148 169.463,201.357 169.971,201.255 170.269 C 201.143 170.599,201.243 170.705,201.512 170.539 C 201.755 170.389,201.956 169.881,201.961 169.411 C 201.966 168.738,202.204 168.931,203.073 170.313 C 204.043 171.855,204.104 172.124,203.576 172.511 C 203.050 172.896,203.107 173.108,204.026 174.201 C 204.605 174.888,205.079 175.305,205.079 175.128 C 205.082 174.351,210.353 174.601,210.853 175.401 C 211.402 176.280,211.056 176.386,210.073 175.639 C 209.378 175.111,207.031 175.237,207.031 175.802 C 207.031 175.979,207.690 176.179,208.496 176.246 C 209.448 176.325,209.924 176.545,209.856 176.876 C 209.663 177.815,210.827 178.602,211.710 178.130 C 212.406 177.757,212.500 177.824,212.500 178.697 C 212.500 179.353,212.716 179.688,213.138 179.688 C 213.489 179.688,214.119 180.083,214.538 180.566 C 215.198 181.327,215.624 181.431,217.702 181.341 C 219.803 181.249,220.189 181.347,220.791 182.122 C 221.378 182.878,221.535 182.922,221.866 182.422 C 222.126 182.029,222.256 181.997,222.260 182.324 C 222.263 182.593,222.529 182.813,222.852 182.813 C 223.175 182.813,223.438 183.159,223.438 183.584 C 223.438 184.251,223.574 184.304,224.439 183.975 C 225.794 183.460,226.995 183.456,226.183 183.969 C 225.867 184.169,225.724 184.448,225.864 184.588 C 226.005 184.729,226.351 184.696,226.634 184.516 C 227.330 184.072,230.469 183.997,230.469 184.425 C 230.469 184.612,230.205 184.766,229.883 184.766 C 229.561 184.766,229.297 184.941,229.297 185.156 C 229.297 185.371,229.485 185.547,229.715 185.547 C 230.409 185.547,231.250 184.484,231.250 183.608 C 231.250 182.896,231.359 182.843,232.062 183.219 C 232.537 183.474,232.780 183.884,232.647 184.210 C 232.523 184.515,232.315 185.029,232.185 185.352 C 232.020 185.758,232.191 185.938,232.741 185.938 C 233.177 185.938,234.090 186.494,234.770 187.174 C 235.779 188.183,236.078 188.309,236.392 187.858 C 236.688 187.434,236.825 187.419,236.976 187.793 C 237.252 188.473,237.891 188.405,237.891 187.695 C 237.891 187.373,237.671 187.104,237.402 187.097 C 237.131 187.091,237.218 186.908,237.598 186.687 C 238.261 186.301,239.564 186.683,239.488 187.242 C 239.340 188.334,239.520 189.453,239.844 189.453 C 240.059 189.453,240.234 189.102,240.234 188.672 C 240.234 188.242,240.410 187.891,240.625 187.891 C 240.840 187.891,241.016 188.154,241.016 188.477 C 241.016 188.799,241.279 189.063,241.602 189.063 C 241.927 189.063,242.188 189.410,242.188 189.844 C 242.188 190.538,242.448 190.625,244.531 190.625 C 247.019 190.625,248.120 191.889,245.996 192.306 C 245.513 192.400,245.996 192.457,247.070 192.430 C 248.444 192.397,248.994 192.528,248.926 192.871 C 248.792 193.538,249.022 193.484,249.659 192.698 C 250.023 192.249,250.039 192.132,249.707 192.331 C 249.438 192.492,249.219 192.438,249.219 192.211 C 249.219 191.983,249.482 191.797,249.805 191.797 C 250.127 191.797,250.391 191.621,250.391 191.406 C 250.391 191.191,250.707 191.016,251.094 191.016 C 251.480 191.016,252.008 190.805,252.266 190.547 C 252.630 190.182,252.734 190.187,252.734 190.567 C 252.734 190.836,252.207 191.240,251.563 191.465 C 250.452 191.852,249.942 192.578,250.781 192.578 C 250.996 192.578,251.172 192.423,251.172 192.233 C 251.172 191.697,252.869 191.383,253.167 191.864 C 253.335 192.137,253.581 192.014,253.843 191.524 C 254.363 190.554,256.734 190.708,256.358 191.687 C 256.176 192.163,256.277 192.201,256.879 191.879 C 257.289 191.659,258.136 191.576,258.760 191.696 C 259.698 191.875,259.851 191.801,259.647 191.269 C 259.282 190.320,260.504 190.449,261.596 191.474 L 262.500 192.324 262.500 191.254 C 262.500 190.370,262.652 190.206,263.379 190.307 C 264.172 190.418,264.247 190.287,264.143 188.965 C 264.056 187.855,264.175 187.500,264.632 187.500 C 265.074 187.500,265.234 187.085,265.234 185.938 C 265.234 185.078,265.079 184.375,264.889 184.375 C 264.699 184.375,264.463 183.952,264.364 183.434 C 264.226 182.712,264.329 182.536,264.807 182.676 C 265.150 182.776,264.765 182.489,263.953 182.039 C 263.140 181.588,262.278 181.341,262.037 181.490 C 261.796 181.639,261.699 181.598,261.823 181.397 C 261.947 181.197,259.820 179.907,257.098 178.529 C 237.935 168.833,225.567 156.558,216.250 137.988 C 214.986 135.469,215.118 135.430,214.538 138.490 M134.282 136.604 C 134.768 136.698,135.471 136.694,135.844 136.597 C 136.218 136.499,135.820 136.422,134.961 136.427 C 134.102 136.431,133.796 136.511,134.282 136.604 M195.291 144.434 L 193.945 145.898 195.410 144.552 C 196.216 143.812,196.875 143.153,196.875 143.087 C 196.875 142.789,196.544 143.070,195.291 144.434 M107.212 169.629 L 105.273 171.680 107.324 169.741 C 108.452 168.675,109.375 167.752,109.375 167.690 C 109.375 167.399,109.013 167.723,107.212 169.629 M199.907 171.370 C 200.393 171.463,201.096 171.460,201.469 171.362 C 201.843 171.264,201.445 171.188,200.586 171.192 C 199.727 171.197,199.421 171.277,199.907 171.370 M101.457 176.399 C 98.071 181.202,98.313 182.066,101.966 178.223 L 104.102 175.977 101.855 178.112 C 99.155 180.679,99.031 180.429,101.354 177.105 C 102.314 175.733,103.013 174.609,102.909 174.609 C 102.804 174.609,102.151 175.415,101.457 176.399 M201.953 175.586 C 201.953 175.908,202.129 176.172,202.344 176.172 C 202.559 176.172,202.734 175.908,202.734 175.586 C 202.734 175.264,202.559 175.000,202.344 175.000 C 202.129 175.000,201.953 175.264,201.953 175.586 M217.217 175.958 C 217.872 175.554,217.593 176.660,216.895 177.235 C 216.246 177.769,216.247 177.787,216.915 177.575 C 217.302 177.453,217.518 177.515,217.395 177.714 C 217.273 177.913,216.826 178.049,216.403 178.017 C 215.897 177.979,215.766 177.828,216.020 177.573 C 216.233 177.361,216.427 176.651,216.452 175.996 C 216.477 175.329,216.576 175.108,216.676 175.493 C 216.775 175.872,217.018 176.081,217.217 175.958 M296.192 177.539 C 296.197 178.398,296.277 178.704,296.370 178.218 C 296.463 177.732,296.460 177.029,296.362 176.656 C 296.264 176.282,296.188 176.680,296.192 177.539 M208.984 178.906 C 208.984 179.121,209.248 179.297,209.570 179.297 C 209.893 179.297,210.156 179.121,210.156 178.906 C 210.156 178.691,209.893 178.516,209.570 178.516 C 209.248 178.516,208.984 178.691,208.984 178.906 M217.500 179.766 C 218.286 180.551,218.033 180.859,216.602 180.859 C 215.495 180.859,215.234 180.711,215.234 180.078 C 215.234 179.184,216.714 178.980,217.500 179.766 M98.065 181.952 C 97.443 183.317,97.765 183.385,98.722 182.092 C 99.286 181.328,99.378 180.990,99.020 180.990 C 98.736 180.990,98.306 181.422,98.065 181.952 M244.922 187.305 C 244.922 187.627,244.746 187.891,244.531 187.891 C 244.316 187.891,244.141 187.627,244.141 187.305 C 244.141 186.982,244.316 186.719,244.531 186.719 C 244.746 186.719,244.922 186.982,244.922 187.305 M243.324 188.020 C 242.984 188.271,242.793 188.740,242.900 189.063 C 243.072 189.578,243.013 189.580,242.404 189.077 C 241.748 188.535,241.755 188.487,242.536 188.139 C 242.989 187.937,243.359 187.593,243.359 187.375 C 243.359 187.157,243.491 187.111,243.652 187.272 C 243.813 187.432,243.665 187.769,243.324 188.020 M233.889 188.507 C 233.762 188.634,234.010 189.089,234.440 189.518 C 235.459 190.537,235.855 190.142,234.872 189.087 C 234.457 188.642,234.015 188.381,233.889 188.507 M252.734 192.969 C 252.734 193.184,252.998 193.359,253.320 193.359 C 253.643 193.359,253.906 193.184,253.906 192.969 C 253.906 192.754,253.643 192.578,253.320 192.578 C 252.998 192.578,252.734 192.754,252.734 192.969 M303.348 209.766 C 302.140 211.721,301.851 212.329,302.505 211.537 C 303.112 210.802,303.130 210.828,302.933 212.123 L 302.727 213.477 303.338 212.159 C 304.003 210.722,304.012 208.691,303.348 209.766 M95.728 210.245 C 95.626 211.409,99.247 219.195,100.945 221.463 C 102.410 223.418,102.181 222.721,100.391 219.774 C 99.531 218.359,98.828 216.935,98.828 216.609 C 98.828 216.282,98.696 216.015,98.535 216.014 C 98.374 216.013,97.922 215.178,97.530 214.159 C 96.573 211.667,95.759 209.898,95.728 210.245 M297.245 217.480 L 295.898 218.945 297.363 217.599 C 298.169 216.859,298.828 216.200,298.828 216.134 C 298.828 215.836,298.498 216.117,297.245 217.480 M297.949 221.821 C 297.358 222.424,296.875 223.026,296.875 223.159 C 296.875 223.293,296.479 223.814,295.996 224.318 C 292.246 228.227,289.200 231.911,291.556 229.688 C 294.063 227.322,299.692 220.665,299.144 220.714 C 299.078 220.720,298.540 221.218,297.949 221.821 M103.688 225.195 C 105.863 227.983,106.005 228.100,105.241 226.482 C 104.866 225.685,104.382 225.143,104.166 225.276 C 103.923 225.427,103.881 225.239,104.056 224.783 C 104.211 224.378,104.211 224.174,104.056 224.329 C 103.901 224.484,103.412 224.303,102.969 223.927 C 102.526 223.550,102.849 224.121,103.688 225.195 M220.489 232.520 L 218.945 234.180 220.605 232.636 C 222.149 231.200,222.445 230.859,222.150 230.859 C 222.086 230.859,221.339 231.606,220.489 232.520 M215.234 238.086 C 214.286 239.053,213.597 239.844,213.705 239.844 C 213.812 239.844,214.676 239.053,215.625 238.086 C 216.574 237.119,217.262 236.328,217.155 236.328 C 217.047 236.328,216.183 237.119,215.234 238.086 M210.916 242.871 L 209.570 244.336 211.035 242.990 C 212.399 241.737,212.680 241.406,212.381 241.406 C 212.316 241.406,211.657 242.065,210.916 242.871 M205.448 248.730 L 204.102 250.195 205.566 248.849 C 206.372 248.109,207.031 247.450,207.031 247.384 C 207.031 247.086,206.701 247.367,205.448 248.730 M285.938 252.075 C 285.938 252.143,286.509 252.714,287.207 253.345 L 288.477 254.492 287.329 253.223 C 286.260 252.039,285.938 251.774,285.938 252.075 M200.760 253.809 L 199.414 255.273 200.879 253.927 C 202.242 252.674,202.523 252.344,202.225 252.344 C 202.160 252.344,201.501 253.003,200.760 253.809 M231.620 254.199 L 230.273 255.664 231.738 254.318 C 233.102 253.065,233.383 252.734,233.084 252.734 C 233.019 252.734,232.360 253.394,231.620 254.199 M224.389 261.816 L 223.242 263.086 224.512 261.939 C 225.210 261.308,225.781 260.736,225.781 260.669 C 225.781 260.367,225.459 260.633,224.389 261.816 M219.127 267.480 L 216.992 269.727 219.238 267.591 C 221.325 265.608,221.663 265.234,221.373 265.234 C 221.312 265.234,220.302 266.245,219.127 267.480 M106.356 267.969 C 106.356 268.936,106.433 269.331,106.526 268.848 C 106.619 268.364,106.619 267.573,106.526 267.090 C 106.433 266.606,106.356 267.002,106.356 267.969 M293.476 268.359 C 293.476 269.541,293.550 270.024,293.639 269.434 C 293.729 268.843,293.729 267.876,293.639 267.285 C 293.550 266.694,293.476 267.178,293.476 268.359 M232.989 281.738 L 231.445 283.398 233.105 281.854 C 234.649 280.418,234.945 280.078,234.650 280.078 C 234.586 280.078,233.839 280.825,232.989 281.738 M121.784 285.830 C 122.486 285.917,123.541 285.915,124.128 285.826 C 124.715 285.737,124.141 285.666,122.852 285.668 C 121.563 285.670,121.082 285.743,121.784 285.830 M221.274 294.629 L 219.336 296.680 221.387 294.741 C 222.515 293.675,223.438 292.752,223.438 292.690 C 223.438 292.399,223.076 292.723,221.274 294.629 " stroke="none" fill="#2aa194" fill-rule="evenodd"></path></g></svg>